<svg width="73" height="24" viewBox="0 0 73 24" fill="none" xmlns="http://www.w3.org/2000/svg">
<path d="M25.598 19V4.45455H30.9247C31.9569 4.45455 32.8116 4.625 33.4886 4.96591C34.1657 5.30208 34.6723 5.759 35.0085 6.33665C35.3447 6.90956 35.5128 7.55587 35.5128 8.27557C35.5128 8.88163 35.4015 9.39299 35.179 9.80966C34.9564 10.2216 34.6581 10.553 34.2841 10.804C33.9148 11.0502 33.5076 11.2301 33.0625 11.3438V11.4858C33.5455 11.5095 34.0166 11.6657 34.4759 11.9545C34.9399 12.2386 35.3234 12.6435 35.6264 13.169C35.9295 13.6946 36.081 14.3338 36.081 15.0866C36.081 15.83 35.9058 16.4976 35.5554 17.0895C35.2098 17.6766 34.6747 18.143 33.9503 18.4886C33.2259 18.8295 32.3002 19 31.1733 19H25.598ZM27.7926 17.1179H30.9602C32.0114 17.1179 32.7642 16.9143 33.2188 16.5071C33.6733 16.0999 33.9006 15.5909 33.9006 14.9801C33.9006 14.5208 33.7846 14.0994 33.5526 13.7159C33.3205 13.3324 32.9891 13.027 32.5582 12.7997C32.1321 12.5724 31.6255 12.4588 31.0384 12.4588H27.7926V17.1179ZM27.7926 10.7472H30.733C31.2254 10.7472 31.6681 10.6525 32.0611 10.4631C32.4588 10.2737 32.7737 10.0085 33.0057 9.66761C33.2424 9.32197 33.3608 8.91477 33.3608 8.44602C33.3608 7.8447 33.1501 7.34044 32.7287 6.93324C32.3073 6.52604 31.661 6.32244 30.7898 6.32244H27.7926V10.7472ZM42.0882 19.2415C41.3969 19.2415 40.7719 19.1136 40.2132 18.858C39.6545 18.5975 39.2118 18.2211 38.8851 17.7287C38.5631 17.2363 38.4021 16.6326 38.4021 15.9176C38.4021 15.3021 38.5205 14.7955 38.7572 14.3977C38.994 14 39.3136 13.6851 39.7161 13.4531C40.1185 13.2211 40.5683 13.0459 41.0655 12.9276C41.5626 12.8092 42.0693 12.7192 42.5854 12.6577C43.2388 12.5819 43.7691 12.5204 44.1763 12.473C44.5835 12.4209 44.8794 12.3381 45.0641 12.2244C45.2487 12.1108 45.3411 11.9261 45.3411 11.6705V11.6207C45.3411 11.0005 45.1659 10.5199 44.8155 10.179C44.4698 9.83807 43.9537 9.66761 43.2672 9.66761C42.5522 9.66761 41.9888 9.82623 41.5768 10.1435C41.1696 10.456 40.8879 10.804 40.7317 11.1875L38.7359 10.733C38.9727 10.0701 39.3183 9.53504 39.7729 9.12784C40.2321 8.71591 40.7601 8.41761 41.3567 8.23295C41.9533 8.04356 42.5806 7.94886 43.2388 7.94886C43.6744 7.94886 44.136 8.00095 44.6237 8.10511C45.1161 8.20455 45.5754 8.3892 46.0016 8.65909C46.4324 8.92898 46.7852 9.31487 47.0598 9.81676C47.3344 10.3139 47.4717 10.9602 47.4717 11.7557V19H45.3979V17.5085H45.3126C45.1753 17.7831 44.9694 18.053 44.6947 18.3182C44.4201 18.5833 44.0674 18.8035 43.6365 18.9787C43.2056 19.1539 42.6895 19.2415 42.0882 19.2415ZM42.5499 17.5369C43.137 17.5369 43.6389 17.4209 44.0555 17.1889C44.4769 16.9569 44.7965 16.6539 45.0143 16.2798C45.2369 15.901 45.3482 15.4962 45.3482 15.0653V13.6591C45.2724 13.7348 45.1256 13.8059 44.9078 13.8722C44.6947 13.9337 44.4509 13.9882 44.1763 14.0355C43.9017 14.0781 43.6341 14.1184 43.3737 14.1562C43.1133 14.1894 42.8955 14.2178 42.7203 14.2415C42.3084 14.2936 41.932 14.3812 41.5911 14.5043C41.2549 14.6274 40.985 14.8049 40.7814 15.0369C40.5825 15.2642 40.4831 15.5672 40.4831 15.946C40.4831 16.4716 40.6772 16.8693 41.0655 17.1392C41.4537 17.4044 41.9485 17.5369 42.5499 17.5369ZM55.2954 19.2202C54.2395 19.2202 53.3304 18.9811 52.5681 18.5028C51.8105 18.0199 51.2281 17.3546 50.821 16.5071C50.4138 15.6596 50.2102 14.6889 50.2102 13.5952C50.2102 12.4872 50.4185 11.5095 50.8352 10.6619C51.2518 9.80966 51.8389 9.14441 52.5965 8.66619C53.3541 8.18797 54.2466 7.94886 55.2741 7.94886C56.1027 7.94886 56.8413 8.10275 57.49 8.41051C58.1387 8.71354 58.6619 9.13968 59.0596 9.68892C59.462 10.2382 59.7012 10.8797 59.7769 11.6136H57.7102C57.5965 11.1023 57.3361 10.6619 56.9289 10.2926C56.5264 9.9233 55.9867 9.73864 55.3096 9.73864C54.7177 9.73864 54.1993 9.89489 53.7542 10.2074C53.3138 10.5152 52.9706 10.9555 52.7244 11.5284C52.4781 12.0966 52.355 12.7689 52.355 13.5455C52.355 14.3409 52.4758 15.0275 52.7173 15.6051C52.9587 16.1828 53.2996 16.6302 53.74 16.9474C54.1851 17.2647 54.7083 17.4233 55.3096 17.4233C55.712 17.4233 56.0766 17.3499 56.4033 17.2031C56.7348 17.0516 57.0118 16.8362 57.2343 16.5568C57.4616 16.2775 57.6202 15.9413 57.7102 15.5483H59.7769C59.7012 16.2538 59.4715 16.8835 59.088 17.4375C58.7045 17.9915 58.1907 18.4271 57.5468 18.7443C56.9076 19.0616 56.1571 19.2202 55.2954 19.2202ZM64.401 15.2997L64.3868 12.7074H64.7561L69.1027 8.09091H71.6453L66.6879 13.3466H66.3541L64.401 15.2997ZM62.4479 19V4.45455H64.5714V19H62.4479ZM69.3371 19L65.4308 13.8153L66.8939 12.331L71.9436 19H69.3371Z" fill="#11224D"/>
<path d="M3.828 10.778H16V12.778H3.828L9.192 18.142L7.778 19.556L0 11.778L7.778 4L9.192 5.414L3.828 10.778Z" fill="#11224D"/>
</svg>
