<svg width="32" height="32" viewBox="0 0 32 32" fill="none" xmlns="http://www.w3.org/2000/svg">
<path d="M23.3 15.85C23.3 15.95 23.3 16.05 23.3 16.15C23.3 16.45 23.1 16.75 22.9 16.95L10.7 29.15C10.1 29.75 9.1 29.75 8.5 29.15C8.2 28.85 8 28.45 8 28.05C8 27.65 8.1 27.25 8.5 26.95L19.7 15.75L8.39999 4.65C8.09999 4.35 8 3.95 8 3.55C8 3.15 8.09999 2.75 8.39999 2.45C8.99999 1.85 9.99999 1.85 10.6 2.45L22.8 14.65C23.1 14.95 23.3 15.45 23.3 15.85Z" fill="#11224D" stroke="#18234C" stroke-width="2" stroke-miterlimit="10" stroke-linecap="round" stroke-linejoin="round"/>
</svg>
